<svg width="96" height="96" viewBox="0 0 96 96" fill="none" xmlns="http://www.w3.org/2000/svg" role="img" aria-labelledby="title desc">
  <title id="title">Sanctuary AI</title>
  <desc id="desc">A polished house and chat mark for The Urban Sanctuary assistant.</desc>
  <rect width="96" height="96" rx="26" fill="url(#background)"/>
  <path d="M22 48.5L48 27L74 48.5V72C74 75.3137 71.3137 78 68 78H28C24.6863 78 22 75.3137 22 72V48.5Z" fill="#0F766E"/>
  <path d="M30.5 50.5L48 36L65.5 50.5V65.5C65.5 68.2614 63.2614 70.5 60.5 70.5H35.5C32.7386 70.5 30.5 68.2614 30.5 65.5V50.5Z" fill="#FFFFFF"/>
  <path d="M39 57H57" stroke="#0F766E" stroke-width="5" stroke-linecap="round"/>
  <path d="M39 65H50" stroke="#14B8A6" stroke-width="5" stroke-linecap="round"/>
  <path d="M61 21C69.2843 21 76 27.268 76 35C76 42.732 69.2843 49 61 49H57.25L49.5 55V48.105C43.2348 46.3587 39 41.1822 39 35C39 27.268 45.7157 21 54 21H61Z" fill="#F59E0B"/>
  <circle cx="54" cy="35" r="2.75" fill="#FFFFFF"/>
  <circle cx="61" cy="35" r="2.75" fill="#FFFFFF"/>
  <circle cx="68" cy="35" r="2.75" fill="#FFFFFF"/>
  <path d="M24 49L48 29L72 49" stroke="#CCFBF1" stroke-width="5" stroke-linecap="round" stroke-linejoin="round"/>
  <defs>
    <linearGradient id="background" x1="14" y1="9" x2="84" y2="88" gradientUnits="userSpaceOnUse">
      <stop stop-color="#ECFDF5"/>
      <stop offset="0.52" stop-color="#F8FAFC"/>
      <stop offset="1" stop-color="#FEF3C7"/>
    </linearGradient>
  </defs>
</svg>
